<svg xmlns="http://www.w3.org/2000/svg" viewBox="0 0 512 512">
  <defs>
    <linearGradient id="bg" x1="0%" y1="0%" x2="100%" y2="100%">
      <stop offset="0%" stop-color="#2563eb" />
      <stop offset="100%" stop-color="#4f46e5" />
    </linearGradient>
  </defs>
  <rect width="512" height="512" rx="112" fill="#0b0e18" />
  <rect x="44" y="44" width="424" height="424" rx="96" fill="url(#bg)" />
  <path d="M128 170c0-23.2 18.8-42 42-42h172c23.2 0 42 18.8 42 42v172c0 23.2-18.8 42-42 42H170c-23.2 0-42-18.8-42-42V170Z" fill="rgba(11,14,24,0.18)" />
  <path d="M182 200h148c11 0 20 9 20 20v72c0 11-9 20-20 20H210l-44 34v-126c0-11 9-20 20-20Z" fill="#fff" />
  <circle cx="224" cy="256" r="16" fill="#2563eb" />
  <circle cx="288" cy="256" r="16" fill="#2563eb" />
  <circle cx="352" cy="256" r="16" fill="#2563eb" />
</svg>
